<?xml version="1.0" encoding="UTF-8" standalone="no"?>
<!-- Created with Inkscape (http://www.inkscape.org/) -->

<svg
   width="1920"
   height="1080"
   viewBox="0 0 508.00001 285.75"
   version="1.1"
   id="svg1"
   inkscape:version="1.3 (0e150ed6c4, 2023-07-21)"
   sodipodi:docname="nvlwindow.svg"
   xmlns:inkscape="http://www.inkscape.org/namespaces/inkscape"
   xmlns:sodipodi="http://sodipodi.sourceforge.net/DTD/sodipodi-0.dtd"
   xmlns="http://www.w3.org/2000/svg"
   xmlns:svg="http://www.w3.org/2000/svg">
  <sodipodi:namedview
     id="namedview1"
     pagecolor="#ffffff"
     bordercolor="#000000"
     borderopacity="0.25"
     inkscape:showpageshadow="2"
     inkscape:pageopacity="0.0"
     inkscape:pagecheckerboard="0"
     inkscape:deskcolor="#d1d1d1"
     inkscape:document-units="mm"
     inkscape:zoom="0.26124924"
     inkscape:cx="828.71055"
     inkscape:cy="553.11166"
     inkscape:window-width="1366"
     inkscape:window-height="697"
     inkscape:window-x="-8"
     inkscape:window-y="-8"
     inkscape:window-maximized="1"
     inkscape:current-layer="layer3" />
  <defs
     id="defs1" />
  <g
     inkscape:label="Lapis 1"
     inkscape:groupmode="layer"
     id="layer1" />
  <g
     inkscape:groupmode="layer"
     id="layer3"
     inkscape:label="Lapis 2">
    <path
       d="m 75.749942,10.205353 a 40.95225,23.035604 0 0 1 2.306838,1.658369 40.95225,23.035604 0 0 1 2.558427,2.381913 40.95225,23.035604 0 0 1 2.033978,2.537385 40.95225,23.035604 0 0 1 1.470569,2.652993 40.95225,23.035604 0 0 1 0.892964,2.736709 40.95225,23.035604 0 0 1 0.03223,0.163446 40.95225,23.035604 0 0 1 0.03223,0.161453 40.95225,23.035604 0 0 1 0.02811,0.163446 40.95225,23.035604 0 0 1 0.02811,0.163446 40.95225,23.035604 0 0 1 0.02811,0.163447 40.95225,23.035604 0 0 1 0.02126,0.163446 40.95225,23.035604 0 0 1 0.02126,0.161452 40.95225,23.035604 0 0 1 0.01783,0.165437 40.95225,23.035604 0 0 1 0.02126,0.163446 40.95225,23.035604 0 0 1 0.0144,0.161452 40.95225,23.035604 0 0 1 0.0144,0.165437 40.95225,23.035604 0 0 1 0.01029,0.161452 40.95225,23.035604 0 0 1 0.01097,0.165437 40.95225,23.035604 0 0 1 0.0035,0.163446 40.95225,23.035604 0 0 1 0.0069,0.163447 40.95225,23.035604 0 0 1 0.0035,0.163446 40.95225,23.035604 0 0 1 0,0.01 40.95225,23.035604 0 0 1 0,0.008 40.95225,23.035604 0 0 1 0,0.01 40.95225,23.035604 0 0 1 0,0.01 40.95225,23.035604 0 0 1 0,0.01 40.95225,23.035604 0 0 1 0,0.01 40.95225,23.035604 0 0 1 0,0.01 40.95225,23.035604 0 0 1 0,0.01 40.95225,23.035604 0 0 1 0,0.008 40.95225,23.035604 0 0 1 0,0.01 40.95225,23.035604 0 0 1 0,0.01 40.95225,23.035604 0 0 1 0,0.01 40.95225,23.035604 0 0 1 0,0.01 40.95225,23.035604 0 0 1 0,0.01 40.95225,23.035604 0 0 1 0,0.01 40.95225,23.035604 0 0 1 0,0.008 40.95225,23.035604 0 0 1 0,0.01 40.95225,23.035604 0 0 1 0,0.02592 40.95225,23.035604 0 0 1 0,0.02391 40.95225,23.035604 0 0 1 0,0.02592 40.95225,23.035604 0 0 1 0,0.02592 40.95225,23.035604 0 0 1 0,0.02391 40.95225,23.035604 0 0 1 0,0.02592 40.95225,23.035604 0 0 1 0,0.02391 40.95225,23.035604 0 0 1 0,0.02592 40.95225,23.035604 0 0 1 0,0.02392 40.95225,23.035604 0 0 1 -0.0035,0.02592 40.95225,23.035604 0 0 1 0,0.02592 40.95225,23.035604 0 0 1 0,0.02391 40.95225,23.035604 0 0 1 0,0.02592 40.95225,23.035604 0 0 1 0,0.02391 40.95225,23.035604 0 0 1 0,0.02592 40.95225,23.035604 0 0 1 -0.0035,0.02391 40.95225,23.035604 0 0 1 0,0.02592 40.95225,23.035604 0 0 1 -0.02126,0.426552 40.95225,23.035604 0 0 1 -0.03223,0.424559 40.95225,23.035604 0 0 1 -0.04937,0.422565 40.95225,23.035604 0 0 1 -0.0672,0.424559 40.95225,23.035604 0 0 1 -0.0744,0.424558 40.95225,23.035604 0 0 1 -0.08859,0.422566 40.95225,23.035604 0 0 1 -0.106285,0.422565 40.95225,23.035604 0 0 1 -0.12048,0.420573 40.95225,23.035604 0 0 1 -0.127543,0.418581 40.95225,23.035604 0 0 1 -0.1488,0.416587 40.95225,23.035604 0 0 1 -0.155932,0.416582 40.95225,23.035604 0 0 1 -0.177188,0.412599 40.95225,23.035604 0 0 1 -0.184251,0.412602 40.95225,23.035604 0 0 1 -0.202012,0.412598 40.95225,23.035604 0 0 1 -0.216137,0.40662 40.95225,23.035604 0 0 1 -0.223268,0.40662 40.95225,23.035604 0 0 1 -5.822014,6.422193 40.95225,23.035604 0 0 1 -9.057254,5.094705 A 40.95225,23.035604 0 0 1 57.008576,46.858796 40.95225,23.035604 0 0 1 44.354309,47.985089 40.95225,23.035604 0 0 1 31.703922,46.858912 40.95225,23.035604 0 0 1 20.28314,43.58403 40.95225,23.035604 0 0 1 18.142851,42.380116 V 242.26349 a 40.95225,23.035607 0 0 1 2.140289,-1.20391 40.95225,23.035607 0 0 1 11.420782,-3.27488 40.95225,23.035607 0 0 1 12.650387,-1.12618 40.95225,23.035607 0 0 1 4.939674,0.16543 40.95225,23.035607 0 0 1 4.865259,0.50429 40.95225,23.035607 0 0 1 4.716437,0.8252 40.95225,23.035607 0 0 1 4.510908,1.14411 40.95225,23.035607 0 0 1 4.23451,1.43912 40.95225,23.035607 0 0 1 3.89079,1.71418 40.95225,23.035607 0 0 1 3.497464,1.96732 40.95225,23.035607 0 0 1 3.047429,2.18857 40.95225,23.035607 0 0 1 2.558427,2.38191 40.95225,23.035607 0 0 1 2.033978,2.53938 40.95225,23.035607 0 0 1 1.470569,2.651 40.95225,23.035607 0 0 1 0.892964,2.73671 40.95225,23.035607 0 0 1 0.03223,0.16346 40.95225,23.035607 0 0 1 0.03223,0.16343 40.95225,23.035607 0 0 1 0.02811,0.16146 40.95225,23.035607 0 0 1 0.02811,0.16343 40.95225,23.035607 0 0 1 0.02811,0.16543 40.95225,23.035607 0 0 1 0.02126,0.16146 40.95225,23.035607 0 0 1 0.02126,0.16347 40.95225,23.035607 0 0 1 0.01783,0.16342 40.95225,23.035607 0 0 1 0.02126,0.16343 40.95225,23.035607 0 0 1 0.0144,0.16347 40.95225,23.035607 0 0 1 0.0144,0.16342 40.95225,23.035607 0 0 1 0.01029,0.16343 40.95225,23.035607 0 0 1 0.01097,0.16343 40.95225,23.035607 0 0 1 0.0035,0.16346 40.95225,23.035607 0 0 1 0.0069,0.16544 40.95225,23.035607 0 0 1 0.0035,0.16145 40.95225,23.035607 0 0 1 0,0.01 40.95225,23.035607 0 0 1 0,0.01 40.95225,23.035607 0 0 1 0,0.01 40.95225,23.035607 0 0 1 0,0.01 40.95225,23.035607 0 0 1 0,0.01 40.95225,23.035607 0 0 1 0,0.008 40.95225,23.035607 0 0 1 0,0.01 40.95225,23.035607 0 0 1 0,0.01 40.95225,23.035607 0 0 1 0,0.01 40.95225,23.035607 0 0 1 0,0.01 40.95225,23.035607 0 0 1 0,0.01 40.95225,23.035607 0 0 1 0,0.01 40.95225,23.035607 0 0 1 0,0.008 40.95225,23.035607 0 0 1 0,0.01 40.95225,23.035607 0 0 1 0,0.01 40.95225,23.035607 0 0 1 0,0.01 40.95225,23.035607 0 0 1 0,0.01 40.95225,23.035607 0 0 1 0,0.0239 40.95225,23.035607 0 0 1 0,0.0258 40.95225,23.035607 0 0 1 0,0.0258 40.95225,23.035607 0 0 1 0,0.0239 40.95225,23.035607 0 0 1 0,0.0258 40.95225,23.035607 0 0 1 0,0.0239 40.95225,23.035607 0 0 1 0,0.0258 40.95225,23.035607 0 0 1 0,0.0239 40.95225,23.035607 0 0 1 0,0.0258 40.95225,23.035607 0 0 1 -0.0035,0.0258 40.95225,23.035607 0 0 1 0,0.0239 40.95225,23.035607 0 0 1 0,0.0258 40.95225,23.035607 0 0 1 0,0.0239 40.95225,23.035607 0 0 1 0,0.0258 40.95225,23.035607 0 0 1 0,0.0239 40.95225,23.035607 0 0 1 -0.0035,0.0258 40.95225,23.035607 0 0 1 0,0.0258 40.95225,23.035607 0 0 1 -0.02126,0.42456 40.95225,23.035607 0 0 1 -0.03223,0.42456 40.95225,23.035607 0 0 1 -0.04937,0.42456 40.95225,23.035607 0 0 1 -0.0672,0.42456 40.95225,23.035607 0 0 1 -0.0744,0.42256 40.95225,23.035607 0 0 1 -0.08859,0.42257 40.95225,23.035607 0 0 1 -0.106285,0.42256 40.95225,23.035607 0 0 1 -0.12048,0.42058 40.95225,23.035607 0 0 1 -0.127543,0.41857 40.95225,23.035607 0 0 1 -0.1488,0.41659 40.95225,23.035607 0 0 1 -0.155932,0.41659 40.95225,23.035607 0 0 1 -0.177188,0.41459 40.95225,23.035607 0 0 1 -0.184251,0.4126 40.95225,23.035607 0 0 1 -0.202012,0.4106 40.95225,23.035607 0 0 1 -0.216137,0.40862 40.95225,23.035607 0 0 1 -0.223268,0.40661 40.95225,23.035607 0 0 1 -5.822014,6.4222 40.95225,23.035607 0 0 1 -4.103402,2.31016 H 432.65417 a 40.952245,23.035604 0 0 1 -4.1034,-2.31016 40.952245,23.035604 0 0 1 -5.82202,-6.4222 40.952245,23.035604 0 0 1 -2.00209,-7.11783 40.952245,23.035604 0 0 1 2.00209,-7.11783 40.952245,23.035604 0 0 1 5.82202,-6.4222 40.952245,23.035604 0 0 1 9.05724,-5.0947 40.952245,23.035604 0 0 1 11.41725,-3.27488 40.952245,23.035604 0 0 1 12.65392,-1.12618 40.952245,23.035604 0 0 1 4.93614,0.16543 40.952245,23.035604 0 0 1 4.86526,0.50429 40.952245,23.035604 0 0 1 4.71643,0.82519 40.952245,23.035604 0 0 1 4.51091,1.14412 40.952245,23.035604 0 0 1 4.23451,1.43912 40.952245,23.035604 0 0 1 3.89079,1.71617 40.952245,23.035604 0 0 1 1.02408,0.57405 V 41.275866 a 40.95225,23.035607 0 0 1 -4.10695,2.308164 40.95225,23.035607 0 0 1 -11.42078,3.274882 40.95225,23.035607 0 0 1 -12.65039,1.126177 40.95225,23.035607 0 0 1 -12.65392,-1.126177 40.95225,23.035607 0 0 1 -11.41725,-3.274882 40.95225,23.035607 0 0 1 -9.05724,-5.094705 40.95225,23.035607 0 0 1 -5.82235,-6.422193 40.95225,23.035607 0 0 1 -2.0021,-7.117837 40.95225,23.035607 0 0 1 2.0021,-7.115841 40.95225,23.035607 0 0 1 5.82201,-6.424189 40.95225,23.035607 0 0 1 2.14029,-1.203912 z"
       style="display:inline;fill-opacity:0.386431;stroke:#4d4d4d;stroke-width:0;stroke-miterlimit:0"
       id="path31" />
    <path
       d="m 62.036498,5e-7 a 44.102457,24.807576 0 0 1 2.487558,1.7859368 44.102457,24.807576 0 0 1 2.75332,2.5652907 44.102457,24.807576 0 0 1 2.189897,2.7327218 44.102457,24.807576 0 0 1 1.583958,2.8563031 44.102457,24.807576 0 0 1 0.960294,2.9479901 44.102457,24.807576 0 0 1 0.03566,0.175404 44.102457,24.807576 0 0 1 0.03566,0.175403 44.102457,24.807576 0 0 1 0.03223,0.175404 44.102457,24.807576 0 0 1 0.03223,0.175403 44.102457,24.807576 0 0 1 0.02468,0.175404 44.102457,24.807576 0 0 1 0.02469,0.175403 44.102457,24.807576 0 0 1 0.02126,0.175404 44.102457,24.807576 0 0 1 0.02126,0.177397 44.102457,24.807576 0 0 1 0.02126,0.175404 44.102457,24.807576 0 0 1 0.01783,0.175403 44.102457,24.807576 0 0 1 0.0144,0.177398 44.102457,24.807576 0 0 1 0.01097,0.175403 44.102457,24.807576 0 0 1 0.01029,0.177398 44.102457,24.807576 0 0 1 0.0069,0.175404 44.102457,24.807576 0 0 1 0.0069,0.177397 44.102457,24.807576 0 0 1 0.0035,0.17341 44.102457,24.807576 0 0 1 0,0.01 44.102457,24.807576 0 0 1 0,0.01 44.102457,24.807576 0 0 1 0,0.01 44.102457,24.807576 0 0 1 0,0.01 44.102457,24.807576 0 0 1 0,0.01 44.102457,24.807576 0 0 1 0,0.01 44.102457,24.807576 0 0 1 0,0.01 44.102457,24.807576 0 0 1 0,0.01 44.102457,24.807576 0 0 1 0,0.01 44.102457,24.807576 0 0 1 0,0.01 44.102457,24.807576 0 0 1 0,0.01 44.102457,24.807576 0 0 1 0,0.01 44.102457,24.807576 0 0 1 0,0.01 44.102457,24.807576 0 0 1 0,0.01 44.102457,24.807576 0 0 1 0,0.01 44.102457,24.807576 0 0 1 0,0.008 44.102457,24.807576 0 0 1 0,0.01 44.102457,24.807576 0 0 1 0,0.01 44.102457,24.807576 0 0 1 0,0.02592 44.102457,24.807576 0 0 1 0,0.02592 44.102457,24.807576 0 0 1 0,0.02592 44.102457,24.807576 0 0 1 0,0.02592 44.102457,24.807576 0 0 1 0,0.02391 44.102457,24.807576 0 0 1 0,0.02592 44.102457,24.807576 0 0 1 0,0.02592 44.102457,24.807576 0 0 1 0,0.02592 44.102457,24.807576 0 0 1 0,0.02391 44.102457,24.807576 0 0 1 0,0.02592 44.102457,24.807576 0 0 1 -0.0035,0.02592 44.102457,24.807576 0 0 1 0,0.02592 44.102457,24.807576 0 0 1 0,0.02592 44.102457,24.807576 0 0 1 0,0.02391 44.102457,24.807576 0 0 1 0,0.02592 44.102457,24.807576 0 0 1 0,0.02592 44.102457,24.807576 0 0 1 -0.0035,0.02592 44.102457,24.807576 0 0 1 0,0.02592 44.102457,24.807576 0 0 1 -0.02468,0.458443 44.102457,24.807576 0 0 1 -0.03566,0.45645 44.102457,24.807576 0 0 1 -0.05349,0.456451 44.102457,24.807576 0 0 1 -0.0672,0.45645 44.102457,24.807576 0 0 1 -0.08153,0.45645 44.102457,24.807576 0 0 1 -0.09922,0.456451 44.102457,24.807576 0 0 1 -0.109852,0.454457 44.102457,24.807576 0 0 1 -0.131108,0.452464 44.102457,24.807576 0 0 1 -0.138172,0.45047 44.102457,24.807576 0 0 1 -0.159428,0.448478 44.102457,24.807576 0 0 1 -0.170126,0.448477 44.102457,24.807576 0 0 1 -0.191383,0.446484 44.102457,24.807576 0 0 1 -0.198445,0.444491 44.102457,24.807576 0 0 1 -0.216137,0.442498 44.102457,24.807576 0 0 1 -0.230332,0.438511 44.102457,24.807576 0 0 1 -0.24096,0.438511 44.102457,24.807576 0 0 1 -6.272041,6.916521 44.102457,24.807576 0 0 1 -9.751779,5.487369 A 44.102457,24.807576 0 0 1 41.856123,39.473984 44.102457,24.807576 0 0 1 28.227724,40.68587 44.102457,24.807576 0 0 1 14.602869,39.473984 44.102457,24.807576 0 0 1 2.3068358,35.947955 44.102457,24.807576 0 0 1 5e-7,34.650359 V 249.90953 a 44.102457,24.807578 0 0 1 2.3068353,-1.29759 44.102457,24.807578 0 0 1 12.2960332,-3.52603 44.102457,24.807578 0 0 1 13.624855,-1.21388 44.102457,24.807578 0 0 1 5.318832,0.17939 44.102457,24.807578 0 0 1 5.240874,0.54216 44.102457,24.807578 0 0 1 5.077872,0.88899 44.102457,24.807578 0 0 1 4.858174,1.23381 44.102457,24.807578 0 0 1 4.560514,1.54874 44.102457,24.807578 0 0 1 4.188451,1.84573 44.102457,24.807578 0 0 1 3.766764,2.11881 44.102457,24.807578 0 0 1 3.284851,2.35799 44.102457,24.807578 0 0 1 2.75332,2.56529 44.102457,24.807578 0 0 1 2.189897,2.73273 44.102457,24.807578 0 0 1 1.583958,2.8563 44.102457,24.807578 0 0 1 0.960294,2.94799 44.102457,24.807578 0 0 1 0.03566,0.17539 44.102457,24.807578 0 0 1 0.03566,0.17341 44.102457,24.807578 0 0 1 0.03223,0.17543 44.102457,24.807578 0 0 1 0.03223,0.17538 44.102457,24.807578 0 0 1 0.02811,0.17739 44.102457,24.807578 0 0 1 0.02126,0.17542 44.102457,24.807578 0 0 1 0.02126,0.17539 44.102457,24.807578 0 0 1 0.02126,0.17739 44.102457,24.807578 0 0 1 0.02126,0.17542 44.102457,24.807578 0 0 1 0.02126,0.17542 44.102457,24.807578 0 0 1 0.0144,0.17739 44.102457,24.807578 0 0 1 0.0069,0.17539 44.102457,24.807578 0 0 1 0.01029,0.17538 44.102457,24.807578 0 0 1 0.0069,0.17542 44.102457,24.807578 0 0 1 0.0069,0.17739 44.102457,24.807578 0 0 1 0.0035,0.17539 44.102457,24.807578 0 0 1 0,0.01 44.102457,24.807578 0 0 1 0,0.01 44.102457,24.807578 0 0 1 0,0.01 44.102457,24.807578 0 0 1 0,0.01 44.102457,24.807578 0 0 1 0,0.01 44.102457,24.807578 0 0 1 0,0.01 44.102457,24.807578 0 0 1 0,0.01 44.102457,24.807578 0 0 1 0,0.01 44.102457,24.807578 0 0 1 0,0.01 44.102457,24.807578 0 0 1 0,0.01 44.102457,24.807578 0 0 1 0,0.01 44.102457,24.807578 0 0 1 0,0.008 44.102457,24.807578 0 0 1 0,0.01 44.102457,24.807578 0 0 1 0,0.01 44.102457,24.807578 0 0 1 0,0.01 44.102457,24.807578 0 0 1 0,0.01 44.102457,24.807578 0 0 1 0,0.01 44.102457,24.807578 0 0 1 0,0.01 44.102457,24.807578 0 0 1 0,0.0258 44.102457,24.807578 0 0 1 0,0.0258 44.102457,24.807578 0 0 1 0,0.0239 44.102457,24.807578 0 0 1 0,0.0258 44.102457,24.807578 0 0 1 0,0.0258 44.102457,24.807578 0 0 1 0,0.0258 44.102457,24.807578 0 0 1 0,0.0258 44.102457,24.807578 0 0 1 0,0.0239 44.102457,24.807578 0 0 1 0,0.0258 44.102457,24.807578 0 0 1 0,0.0258 44.102457,24.807578 0 0 1 0,0.0258 44.102457,24.807578 0 0 1 -0.0035,0.0258 44.102457,24.807578 0 0 1 0,0.0239 44.102457,24.807578 0 0 1 0,0.0258 44.102457,24.807578 0 0 1 0,0.0258 44.102457,24.807578 0 0 1 0,0.0258 44.102457,24.807578 0 0 1 0,0.0239 44.102457,24.807578 0 0 1 -0.0035,0.0258 44.102457,24.807578 0 0 1 -0.02469,0.45844 44.102457,24.807578 0 0 1 -0.03566,0.45844 44.102457,24.807578 0 0 1 -0.04937,0.45646 44.102457,24.807578 0 0 1 -0.07083,0.45645 44.102457,24.807578 0 0 1 -0.08153,0.45645 44.102457,24.807578 0 0 1 -0.09922,0.45446 44.102457,24.807578 0 0 1 -0.109851,0.45445 44.102457,24.807578 0 0 1 -0.131109,0.45446 44.102457,24.807578 0 0 1 -0.138171,0.45047 44.102457,24.807578 0 0 1 -0.159429,0.44848 44.102457,24.807578 0 0 1 -0.170125,0.44847 44.102457,24.807578 0 0 1 -0.187818,0.44449 44.102457,24.807578 0 0 1 -0.202011,0.44649 44.102457,24.807578 0 0 1 -0.216137,0.4425 44.102457,24.807578 0 0 1 -0.230331,0.43851 44.102457,24.807578 0 0 1 -0.24096,0.43652 44.102457,24.807578 0 0 1 -6.268496,6.91851 44.102457,24.807578 0 0 1 -4.422321,2.48755 H 446.39581 a 44.102452,24.807576 0 0 1 -4.41878,-2.48755 44.102452,24.807576 0 0 1 -6.27204,-6.91851 44.102452,24.807576 0 0 1 -2.15446,-7.66398 44.102452,24.807576 0 0 1 2.15446,-7.66399 44.102452,24.807576 0 0 1 6.27204,-6.91651 44.102452,24.807576 0 0 1 9.75533,-5.48737 44.102452,24.807576 0 0 1 12.29603,-3.52603 44.102452,24.807576 0 0 1 13.62486,-1.21388 44.102452,24.807576 0 0 1 5.31528,0.1794 44.102452,24.807576 0 0 1 5.24088,0.54215 44.102452,24.807576 0 0 1 5.07787,0.88899 44.102452,24.807576 0 0 1 4.85817,1.23381 44.102452,24.807576 0 0 1 4.56052,1.54874 44.102452,24.807576 0 0 1 4.19199,1.84573 44.102452,24.807576 0 0 1 1.10204,0.6199 V 33.4604 a 44.102457,24.807578 0 0 1 -4.42586,2.487555 44.102457,24.807578 0 0 1 -12.29604,3.526029 44.102457,24.807578 0 0 1 -13.62485,1.211886 44.102457,24.807578 0 0 1 -13.62486,-1.211886 44.102457,24.807578 0 0 1 -12.29603,-3.526029 44.102457,24.807578 0 0 1 -9.75533,-5.487369 44.102457,24.807578 0 0 1 -6.26849,-6.91652 44.102457,24.807578 0 0 1 -2.15801,-7.665973 44.102457,24.807578 0 0 1 2.15801,-7.6639801 44.102457,24.807578 0 0 1 6.26849,-6.9165178 A 44.102457,24.807578 0 0 1 444.28387,5e-7 Z"
       style="display:inline;fill-opacity:0.386431;stroke:#4d4d4d;stroke-width:0;stroke-miterlimit:0"
       id="path30" />
  </g>
</svg>
